<svg width="33" height="32" viewBox="0 0 33 32" fill="none" xmlns="http://www.w3.org/2000/svg">
<g id="match">
<path id="Union" opacity="0.5" fill-rule="evenodd" clip-rule="evenodd" d="M20.5682 4.0678C20.5682 1.82122 18.747 9.86511e-08 16.5004 0C14.2539 -9.86502e-08 12.4326 1.82122 12.4326 4.0678L12.4326 15.986C12.4326 15.9912 12.4326 15.9964 12.4326 16.0017C12.4326 16.077 12.4347 16.1518 12.4387 16.2261C12.5549 18.3686 14.329 20.07 16.5004 20.07C16.5106 20.07 16.5207 20.07 16.5308 20.0699H28.4322C30.679 20.0699 32.5004 18.2485 32.5004 16.0017C32.5004 13.7548 30.679 11.9334 28.4322 11.9334H22.7793C21.5582 11.9334 20.5682 10.9435 20.5682 9.72236L20.5682 4.0678Z" fill="url(#paint0_linear_201_5717)"/>
<path id="Union_2" fill-rule="evenodd" clip-rule="evenodd" d="M20.5678 16.0014C20.5678 13.7548 18.7466 11.9336 16.5 11.9336C16.4938 11.9336 16.4876 11.9336 16.4814 11.9336L4.56825 11.9336C2.32142 11.9336 0.5 13.7551 0.5 16.0019C0.5 18.2487 2.32142 20.0701 4.56824 20.0701L10.2212 20.0701C11.4423 20.0701 12.4322 21.0601 12.4322 22.2812L12.4322 27.9358C12.4322 30.1824 14.2534 32.0036 16.5 32.0036C18.7466 32.0036 20.5678 30.1824 20.5678 27.9358V16.0019V16.0014Z" fill="url(#paint1_linear_201_5717)"/>
</g>
<defs>
<linearGradient id="paint0_linear_201_5717" x1="22.4665" y1="0" x2="22.4665" y2="20.07" gradientUnits="userSpaceOnUse">
<stop offset="0.87" stop-color="white"/>
<stop offset="1" stop-color="#BFC4FF"/>
</linearGradient>
<linearGradient id="paint1_linear_201_5717" x1="10.5339" y1="11.9336" x2="10.5339" y2="32.0036" gradientUnits="userSpaceOnUse">
<stop offset="0.87" stop-color="white"/>
<stop offset="1" stop-color="#BFC4FF"/>
</linearGradient>
</defs>
</svg>
