<svg width="25" height="24" viewBox="0 0 25 24" fill="none" xmlns="http://www.w3.org/2000/svg">
<g id="person">
<path id="Vector" d="M12.5 12.0015C14.71 12.0015 16.5 10.2115 16.5 8.00146C16.5 5.79146 14.71 4.00146 12.5 4.00146C10.29 4.00146 8.5 5.79146 8.5 8.00146C8.5 10.2115 10.29 12.0015 12.5 12.0015ZM12.5 14.0015C9.83 14.0015 4.5 15.3415 4.5 18.0015V19.0015C4.5 19.5515 4.95 20.0015 5.5 20.0015H19.5C20.05 20.0015 20.5 19.5515 20.5 19.0015V18.0015C20.5 15.3415 15.17 14.0015 12.5 14.0015Z" fill="url(#paint0_linear_201_5726)"/>
</g>
<defs>
<linearGradient id="paint0_linear_201_5726" x1="12.5" y1="4.00146" x2="12.5" y2="20.0015" gradientUnits="userSpaceOnUse">
<stop offset="0.87" stop-color="white"/>
<stop offset="1" stop-color="#BFC4FF"/>
</linearGradient>
</defs>
</svg>
