<svg width="176" height="176" viewBox="0 0 176 176" fill="none" xmlns="http://www.w3.org/2000/svg">
<path d="M0 88C0 39.3989 39.3989 0 88 0C136.601 0 176 39.3989 176 88C176 136.601 136.601 176 88 176C39.3989 176 0 136.601 0 88Z" fill="url(#paint0_linear_192_1077)"/>
<path fill-rule="evenodd" clip-rule="evenodd" d="M137.097 75.055C139.038 76.5367 139.431 79.3265 137.974 81.2863C136.516 83.2461 133.761 83.6337 131.819 82.152L90.6681 50.7472C89.876 50.1427 88.7775 50.1427 87.9854 50.7472L46.8335 82.1523C44.892 83.634 42.1367 83.2464 40.6793 81.2866C39.2219 79.3268 39.6144 76.537 41.5559 75.0553L86.5742 40.6995C87.3958 40.0725 88.3633 39.7802 89.3164 39.8003C90.276 39.7757 91.2513 40.0676 92.0787 40.6991L137.097 75.055Z" fill="white"/>
<path fill-rule="evenodd" clip-rule="evenodd" d="M95.9296 72.8515C95.9296 69.2048 92.9734 66.2485 89.3266 66.2485C85.6799 66.2485 82.7237 69.2048 82.7237 72.8515L82.7237 92.1979C82.7236 92.2062 82.7236 92.2145 82.7236 92.2229C82.7236 92.3405 82.7267 92.4574 82.7328 92.5735C82.9146 96.0577 85.7973 98.8267 89.3266 98.8267C89.343 98.8267 89.3594 98.8267 89.3758 98.8265H108.695C112.342 98.8265 115.298 95.87 115.298 92.2229C115.298 88.5757 112.342 85.6192 108.695 85.6192L98.1407 85.6192C96.9195 85.6192 95.9296 84.6292 95.9296 83.4081L95.9296 72.8515Z" fill="white" fill-opacity="0.5"/>
<path fill-rule="evenodd" clip-rule="evenodd" d="M95.9296 92.2221C95.9296 88.5754 92.9733 85.6191 89.3266 85.6191C89.3166 85.6191 89.3066 85.6192 89.2966 85.6192L69.9587 85.6192C66.3116 85.6192 63.355 88.5758 63.355 92.2229C63.355 95.87 66.3116 98.8266 69.9587 98.8266L80.5126 98.8266C81.7337 98.8266 82.7237 99.8165 82.7237 101.038V111.594C82.7237 115.241 85.6799 118.197 89.3266 118.197C92.9733 118.197 95.9296 115.241 95.9296 111.594V92.2229V92.2221Z" fill="white"/>
<path fill-rule="evenodd" clip-rule="evenodd" d="M51.9098 95.2026C54.3409 95.2026 56.3118 97.1735 56.3118 99.6046L56.3118 126.764C56.3118 127.985 57.3017 128.975 58.5228 128.975L120.13 128.975C121.351 128.975 122.341 127.985 122.341 126.764V99.6046C122.341 97.1735 124.312 95.2026 126.743 95.2026C129.175 95.2026 131.145 97.1735 131.145 99.6046V132.711C131.145 132.768 131.144 132.825 131.142 132.881C131.144 132.935 131.145 132.99 131.145 133.044C131.145 135.291 129.324 137.113 127.076 137.113L51.5768 137.113C49.3296 137.113 47.5078 135.291 47.5078 133.044C47.5078 132.99 47.5089 132.935 47.511 132.881C47.5089 132.825 47.5078 132.768 47.5078 132.711L47.5078 99.6046C47.5078 97.1735 49.4786 95.2026 51.9098 95.2026Z" fill="white"/>
<defs>
<linearGradient id="paint0_linear_192_1077" x1="88" y1="0" x2="88" y2="176" gradientUnits="userSpaceOnUse">
<stop stop-color="#9747FF"/>
<stop offset="1" stop-color="#5260FF"/>
</linearGradient>
</defs>
</svg>
