<svg width="56" height="56" viewBox="0 0 56 56" fill="none" xmlns="http://www.w3.org/2000/svg">
<g filter="url(#filter0_d_208_3191)">
<g clip-path="url(#clip0_208_3191)">
<path d="M27.9991 0.0849609C22.707 0.0907831 17.6333 2.19551 13.891 5.93742C10.1487 9.67933 8.04346 14.7528 8.03711 20.045C8.03711 25.185 12.0171 33.229 19.8671 43.953C20.8016 45.2332 22.0252 46.2747 23.4383 46.9928C24.8514 47.7108 26.4141 48.085 27.9991 48.085C29.5842 48.085 31.1468 47.7108 32.5599 46.9928C33.973 46.2747 35.1966 45.2332 36.1311 43.953C43.9811 33.229 47.9611 25.185 47.9611 20.045C47.9548 14.7528 45.8495 9.67933 42.1072 5.93742C38.365 2.19551 33.2912 0.0907831 27.9991 0.0849609V0.0849609ZM27.9991 28.001C26.4169 28.001 24.8701 27.5318 23.5545 26.6527C22.239 25.7737 21.2136 24.5242 20.6081 23.0624C20.0026 21.6006 19.8441 19.9921 20.1528 18.4402C20.4615 16.8884 21.2234 15.4629 22.3423 14.3441C23.4611 13.2253 24.8865 12.4634 26.4384 12.1547C27.9902 11.846 29.5988 12.0044 31.0606 12.6099C32.5224 13.2154 33.7718 14.2408 34.6509 15.5564C35.5299 16.872 35.9991 18.4187 35.9991 20.001C35.9991 22.1227 35.1563 24.1575 33.656 25.6578C32.1557 27.1581 30.1208 28.001 27.9991 28.001Z" fill="#5260FF"/>
</g>
</g>
<defs>
<filter id="filter0_d_208_3191" x="0" y="0" width="56" height="56" filterUnits="userSpaceOnUse" color-interpolation-filters="sRGB">
<feFlood flood-opacity="0" result="BackgroundImageFix"/>
<feColorMatrix in="SourceAlpha" type="matrix" values="0 0 0 0 0 0 0 0 0 0 0 0 0 0 0 0 0 0 127 0" result="hardAlpha"/>
<feOffset dy="4"/>
<feGaussianBlur stdDeviation="2"/>
<feComposite in2="hardAlpha" operator="out"/>
<feColorMatrix type="matrix" values="0 0 0 0 0 0 0 0 0 0 0 0 0 0 0 0 0 0 0.25 0"/>
<feBlend mode="normal" in2="BackgroundImageFix" result="effect1_dropShadow_208_3191"/>
<feBlend mode="normal" in="SourceGraphic" in2="effect1_dropShadow_208_3191" result="shape"/>
</filter>
<clipPath id="clip0_208_3191">
<rect width="48" height="48" fill="white" transform="translate(4)"/>
</clipPath>
</defs>
</svg>
