<svg width="36" height="36" viewBox="0 0 36 36" fill="none" xmlns="http://www.w3.org/2000/svg">
<g id="fi-sr-marker" clip-path="url(#clip0_201_7566)">
<path id="Vector" d="M18.0008 0.0634766C14.0317 0.0678432 10.2264 1.64639 7.4197 4.45282C4.61299 7.25925 3.03406 11.0644 3.0293 15.0335C3.0293 18.8885 6.0143 24.9215 11.9018 32.9645C12.6027 33.9247 13.5204 34.7058 14.5802 35.2443C15.64 35.7829 16.812 36.0635 18.0008 36.0635C19.1896 36.0635 20.3616 35.7829 21.4214 35.2443C22.4812 34.7058 23.3989 33.9247 24.0998 32.9645C29.9873 24.9215 32.9723 18.8885 32.9723 15.0335C32.9675 11.0644 31.3886 7.25925 28.5819 4.45282C25.7752 1.64639 21.9699 0.0678432 18.0008 0.0634766V0.0634766ZM18.0008 21.0005C16.8141 21.0005 15.6541 20.6486 14.6674 19.9893C13.6807 19.33 12.9116 18.3929 12.4575 17.2966C12.0034 16.2002 11.8846 14.9938 12.1161 13.8299C12.3476 12.666 12.919 11.597 13.7582 10.7578C14.5973 9.91872 15.6664 9.34728 16.8303 9.11577C17.9941 8.88425 19.2005 9.00307 20.2969 9.4572C21.3933 9.91133 22.3303 10.6804 22.9896 11.6671C23.6489 12.6538 24.0008 13.8138 24.0008 15.0005C24.0008 16.5918 23.3687 18.1179 22.2434 19.2431C21.1182 20.3683 19.5921 21.0005 18.0008 21.0005Z" fill="#2D3748"/>
</g>
<defs>
<clipPath id="clip0_201_7566">
<rect width="36" height="36" fill="white"/>
</clipPath>
</defs>
</svg>
