<svg width="24" height="24" viewBox="0 0 24 24" fill="none" xmlns="http://www.w3.org/2000/svg">
<g id="fi-sr-marker" clip-path="url(#clip0_201_7538)">
<path id="Vector" d="M12.0005 0.0424805C9.35447 0.0453916 6.81761 1.09776 4.94647 2.96871C3.07533 4.83966 2.02271 7.37642 2.01953 10.0225C2.01953 12.5925 4.00953 16.6145 7.93453 21.9765C8.40179 22.6166 9.01359 23.1374 9.72013 23.4964C10.4267 23.8554 11.208 24.0425 12.0005 24.0425C12.7931 24.0425 13.5744 23.8554 14.2809 23.4964C14.9875 23.1374 15.5993 22.6166 16.0665 21.9765C19.9915 16.6145 21.9815 12.5925 21.9815 10.0225C21.9784 7.37642 20.9257 4.83966 19.0546 2.96871C17.1835 1.09776 14.6466 0.0453916 12.0005 0.0424805ZM12.0005 14.0005C11.2094 14.0005 10.436 13.7659 9.77825 13.3264C9.12045 12.8868 8.60776 12.2621 8.30501 11.5312C8.00226 10.8003 7.92305 9.99605 8.07739 9.22012C8.23173 8.4442 8.61269 7.73146 9.1721 7.17205C9.73151 6.61264 10.4442 6.23168 11.2202 6.07734C11.9961 5.923 12.8004 6.00221 13.5313 6.30496C14.2622 6.60771 14.8869 7.1204 15.3264 7.7782C15.7659 8.436 16.0005 9.20936 16.0005 10.0005C16.0005 11.0613 15.5791 12.0788 14.829 12.8289C14.0788 13.5791 13.0614 14.0005 12.0005 14.0005Z" fill="#718096"/>
</g>
<defs>
<clipPath id="clip0_201_7538">
<rect width="24" height="24" fill="white"/>
</clipPath>
</defs>
</svg>
